# xmcd
#
# Track frame offsets: 
#        150
#        11195
#        26060
#        39227
#        52827
#        65682
#        79870
#        92465
#        106025
#        120070
#        132310
#
# Disc length: 1953 seconds
#
# Revision: 0
# Processed by: cddbd v1.5.2PL0 Copyright (c) Steve Scherf et al.
# Submitted via: ExactAudioCopy v0.95b3
#
DISCID=7c079f0b
DTITLE=Various Artist - The Blues, Vol. 2
DYEAR=1990
DGENRE=Blues
TTITLE0=Chuck Berry/Thirty Days
TTITLE1=John Lee hooker/Sugar Mama
TTITLE2=Howlin'Wolf/Evil
TTITLE3=Muddy Waters/Got My Mojo Working
TTITLE4=Bo Diddley/I'm A Man
TTITLE5=Little Walter/Blues With A Feeling
TTITLE6=Little Walter/Key To The Highway
TTITLE7=Jimmy Witherspoon/It Ain't No Secret
TTITLE8=Chuck Berry/Wee Wee Hours
TTITLE9=Buddy Guy/Ten Years Ago
TTITLE10=Otis Rush/So Many Roads
EXTD=
EXTT0=
EXTT1=
EXTT2=
EXTT3=
EXTT4=
EXTT5=
EXTT6=
EXTT7=
EXTT8=
EXTT9=
EXTT10=
PLAYORDER=
